<?xml version="1.0" standalone="no"?>
<!DOCTYPE svg PUBLIC "-//W3C//DTD SVG 20010904//EN"
 "http://www.w3.org/TR/2001/REC-SVG-20010904/DTD/svg10.dtd">
<svg version="1.0" xmlns="http://www.w3.org/2000/svg"
 width="998.000000pt" height="998.000000pt" viewBox="0 0 998.000000 998.000000"
 preserveAspectRatio="xMidYMid meet">
<metadata>
Created by potrace 1.14, written by Peter Selinger 2001-2017
</metadata>
<g transform="translate(0.000000,998.000000) scale(0.100000,-0.100000)"
fill="#000000" stroke="none">
<path d="M1695 8710 c-1 -3 -1 -12 0 -22 2 -9 6 -56 9 -105 4 -48 9 -108 11
-133 8 -83 15 -164 20 -230 3 -36 8 -90 10 -120 3 -30 8 -86 10 -125 6 -84 14
-182 20 -250 2 -27 7 -86 10 -130 4 -44 8 -100 11 -125 2 -25 6 -79 9 -120 3
-41 7 -95 10 -120 2 -25 7 -76 10 -115 12 -154 20 -258 30 -375 3 -30 7 -84
10 -120 3 -36 7 -94 10 -130 7 -81 12 -142 20 -245 3 -44 7 -100 10 -125 3
-25 7 -81 11 -125 3 -44 7 -96 9 -115 2 -19 6 -80 10 -135 3 -55 8 -107 10
-115 2 -8 6 -61 10 -118 4 -57 8 -111 10 -120 1 -9 6 -64 9 -122 4 -58 9 -118
11 -135 2 -16 7 -70 10 -120 4 -49 8 -106 10 -125 2 -19 6 -78 10 -130 3 -52
8 -106 10 -120 2 -14 6 -65 10 -115 6 -85 10 -137 20 -245 2 -25 7 -81 10
-125 3 -44 8 -102 10 -130 3 -27 7 -81 10 -120 3 -38 7 -92 10 -120 2 -27 7
-86 10 -130 3 -44 8 -98 10 -120 3 -22 7 -78 10 -125 4 -47 8 -101 10 -120 2
-19 6 -75 10 -125 4 -49 8 -106 10 -125 2 -19 6 -78 10 -130 4 -52 9 -102 10
-110 2 -8 6 -60 10 -115 4 -55 8 -116 10 -135 2 -19 6 -71 10 -115 3 -44 7
-102 10 -130 2 -27 7 -84 10 -125 3 -41 8 -95 10 -120 3 -25 7 -81 10 -125 3
-44 8 -96 10 -115 2 -19 7 -80 10 -135 3 -55 8 -111 10 -125 2 -14 7 -70 11
-125 3 -55 8 -107 10 -115 1 -8 3 -23 3 -32 1 -15 71 -17 996 -16 916 0 995 1
999 16 2 10 8 42 11 72 4 30 9 63 11 72 1 9 10 68 19 130 9 62 18 124 20 138
2 14 16 106 30 205 14 99 28 191 31 205 2 14 7 45 10 70 l5 45 -646 0 c-639 0
-645 0 -646 20 0 11 -2 38 -4 60 -2 22 -6 105 -10 185 -3 80 -8 174 -10 210
-5 91 -15 295 -20 420 -3 58 -7 143 -10 190 -2 47 -7 137 -10 200 -3 63 -8
156 -10 205 -3 50 -7 140 -10 200 -3 61 -7 151 -10 200 -5 104 -13 268 -20
405 -5 120 -14 297 -20 420 -3 52 -8 140 -10 195 -3 55 -7 145 -10 200 -3 55
-7 147 -10 205 -3 58 -7 134 -10 170 -2 36 -7 110 -10 165 -4 55 -8 120 -10
145 -3 25 -7 88 -10 140 -3 52 -7 127 -10 165 -8 112 -19 278 -30 450 -3 50
-7 117 -10 150 -9 119 -15 212 -20 300 -3 50 -7 117 -10 150 -3 33 -7 96 -10
140 -4 79 -11 191 -20 315 -3 36 -7 103 -10 150 -3 47 -8 117 -10 155 -3 39
-8 111 -10 160 -3 50 -8 119 -10 155 -3 36 -7 108 -11 160 -4 52 -8 97 -11
100 -6 6 -1064 7 -1068 0z"/>
<path d="M7199 8685 c-1 -16 -3 -43 -4 -60 -1 -16 -5 -77 -9 -135 -4 -58 -9
-132 -11 -165 -3 -33 -7 -100 -10 -150 -8 -138 -19 -305 -30 -465 -3 -41 -7
-113 -10 -160 -3 -47 -7 -119 -10 -160 -3 -41 -7 -113 -10 -160 -3 -47 -8
-110 -10 -140 -2 -30 -7 -98 -10 -150 -13 -219 -15 -248 -30 -475 -8 -114 -15
-224 -20 -315 -3 -47 -7 -116 -10 -155 -3 -38 -7 -106 -10 -150 -11 -184 -16
-264 -20 -335 -4 -78 -13 -227 -20 -340 -2 -36 -7 -119 -10 -185 -3 -66 -8
-145 -10 -175 -2 -30 -6 -109 -10 -175 -3 -66 -8 -149 -10 -185 -2 -36 -7
-121 -10 -190 -3 -69 -8 -147 -10 -175 -3 -27 -7 -104 -10 -170 -7 -157 -13
-257 -20 -380 -4 -55 -8 -129 -10 -165 -5 -104 -16 -300 -20 -360 -2 -30 -7
-113 -10 -185 -3 -71 -8 -149 -10 -173 l-4 -42 37 0 c226 -3 884 -1 887 2 2 2
6 39 10 83 3 44 8 100 10 125 2 25 7 79 10 120 3 41 7 98 10 125 5 51 11 125
20 237 6 73 14 163 20 228 2 25 7 79 10 120 3 41 8 93 10 115 2 22 6 76 10
120 3 44 8 98 10 120 2 22 7 76 10 120 3 44 8 96 10 115 2 19 7 71 11 115 3
44 7 96 9 115 2 19 6 71 10 115 3 44 8 100 11 125 4 43 8 84 19 235 3 39 8 90
10 115 3 25 7 79 10 120 3 41 8 93 10 115 2 22 7 74 10 115 3 41 8 95 10 120
3 25 7 72 10 105 4 55 13 161 20 245 2 19 6 69 9 110 4 41 9 98 12 126 2 28 7
80 9 115 6 80 14 170 20 229 2 25 7 74 10 110 3 36 7 88 9 115 3 28 8 88 11
133 4 46 8 92 10 101 2 9 6 65 10 123 3 59 8 116 10 127 2 12 7 63 10 113 3
51 8 104 10 118 2 14 6 68 10 120 3 52 8 106 10 120 2 14 6 61 10 105 4 44 8
96 10 115 2 19 6 76 10 125 3 50 8 101 10 115 2 14 6 66 10 115 3 50 8 110 10
135 3 25 7 68 9 95 6 58 18 209 20 245 l1 25 -537 0 -538 0 -1 -30z"/>
<path d="M4105 8618 c-4 -29 -9 -62 -10 -73 -2 -11 -7 -40 -10 -65 -3 -25 -10
-70 -15 -100 -5 -30 -12 -75 -15 -100 -4 -25 -12 -88 -20 -140 -8 -52 -17
-115 -20 -140 -3 -25 -8 -56 -10 -70 -15 -91 -25 -162 -30 -205 -3 -27 -10
-75 -15 -105 -5 -30 -12 -75 -15 -100 -3 -25 -8 -56 -10 -70 -2 -14 -13 -90
-25 -170 -11 -80 -23 -156 -25 -170 -3 -24 -12 -83 -21 -145 -2 -16 -6 -41 -9
-55 -2 -14 -7 -45 -10 -70 -7 -54 -10 -73 -24 -165 -29 -193 -27 -179 -35
-245 -4 -30 -9 -62 -11 -70 -2 -8 -7 -39 -10 -69 -4 -30 -8 -62 -10 -71 -2 -9
-6 -41 -10 -71 -3 -30 -8 -61 -10 -69 -2 -8 -7 -35 -10 -60 -3 -25 -8 -56 -10
-70 -2 -14 -7 -45 -10 -70 -3 -25 -7 -52 -10 -60 -2 -8 -7 -44 -10 -80 -4 -36
-9 -68 -12 -73 -4 -7 -6 -47 -18 -397 -12 -363 -14 -415 -19 -610 -4 -107 -8
-249 -11 -315 -5 -122 -11 -299 -20 -615 -3 -96 -7 -229 -10 -295 -14 -418
-18 -556 -19 -683 l-1 -144 463 0 c255 0 465 2 467 4 1 2 6 35 9 73 4 39 11
108 17 155 18 161 19 175 24 223 3 26 7 60 9 75 3 15 7 54 11 87 3 33 8 78 11
100 3 22 7 61 9 87 3 27 7 67 9 90 4 43 13 222 21 430 2 59 7 165 10 235 5
120 7 177 20 493 3 69 7 175 10 235 5 118 13 298 20 485 2 63 7 169 10 235 12
263 15 326 20 475 3 85 8 184 10 220 2 36 7 144 10 240 4 96 8 209 10 250 2
41 7 149 10 240 7 194 10 269 20 490 4 91 7 177 6 193 -1 15 4 28 11 28 7 1
97 2 201 3 l187 1 1 -45 c0 -52 8 -232 24 -540 2 -41 6 -142 10 -225 3 -82 8
-188 10 -235 7 -135 16 -327 20 -430 2 -52 6 -144 10 -205 3 -60 8 -155 10
-210 5 -119 13 -291 20 -435 3 -58 7 -155 10 -216 2 -60 7 -157 10 -215 3 -57
7 -158 10 -224 3 -66 7 -165 10 -220 3 -55 7 -147 10 -205 2 -58 7 -159 10
-225 6 -124 9 -193 19 -425 4 -74 8 -153 11 -175 2 -22 7 -67 11 -100 3 -33 8
-68 9 -77 2 -9 7 -48 10 -85 4 -37 9 -75 10 -83 2 -9 6 -43 10 -75 4 -33 9
-72 11 -87 2 -15 6 -47 9 -70 9 -92 33 -291 39 -328 2 -14 7 -56 11 -95 4 -38
8 -77 10 -85 1 -8 6 -42 9 -75 4 -33 9 -73 11 -90 2 -16 7 -52 10 -80 3 -27 7
-61 10 -75 2 -14 7 -52 10 -85 3 -33 8 -73 10 -90 4 -27 17 -134 31 -250 2
-22 6 -56 9 -75 4 -31 9 -73 31 -260 4 -30 8 -62 9 -70 2 -13 121 -15 998 -17
l997 -2 1 22 c0 12 2 29 3 37 2 8 6 56 10 105 4 50 9 106 11 125 3 19 7 67 10
105 3 39 7 90 10 115 2 25 7 81 10 125 4 44 9 93 11 110 2 16 6 70 10 120 l6
90 -651 0 c-358 0 -651 2 -652 5 -2 13 -8 142 -14 320 -4 107 -8 238 -10 290
-2 52 -6 176 -10 275 -3 99 -8 225 -10 280 -2 55 -7 179 -10 275 -12 341 -21
624 -30 851 -3 68 -7 196 -10 284 -3 88 -7 203 -10 255 -2 52 -7 185 -10 295
-9 258 -10 270 -29 400 -10 61 -19 126 -22 145 -3 19 -7 46 -9 60 -12 78 -25
161 -30 200 -3 25 -8 57 -10 71 -3 14 -7 43 -10 65 -9 76 -26 190 -35 239 -5
28 -11 70 -15 95 -3 25 -7 54 -9 65 -2 11 -7 43 -10 70 -4 28 -13 93 -22 145
-8 52 -17 112 -19 135 -3 22 -7 51 -10 65 -2 14 -7 45 -10 70 -3 25 -10 72
-15 105 -5 33 -12 78 -15 100 -3 22 -8 51 -10 65 -3 14 -7 43 -10 65 -5 39
-14 99 -21 140 -1 11 -8 56 -14 100 -7 44 -14 87 -15 96 -2 9 -6 40 -10 70 -3
30 -10 79 -15 109 -5 30 -11 71 -14 90 -23 160 -46 314 -51 339 -2 9 -9 61
-16 114 l-12 97 -868 0 -867 0 -7 -52z"/>
</g>
</svg>
